<svg xmlns="http://www.w3.org/2000/svg" viewBox="0 0 223.81 235.04"><path d="M220.48 179a13.8 13.8 0 0 0-6.94-7.09c5.54-5.52 8.89-11.58 9.54-18a.77.77 0 0 0 0-.15c.06-.59.1-1.19.11-1.79 0-4.53-2.33-8.71-6.64-12.49a27.66 27.66 0 0 0 6.51-14.63.77.77 0 0 0 0-.15c.06-.59.1-1.19.11-1.79a13.71 13.71 0 0 0-1.89-6.85 11.56 11.56 0 0 0-2.13-5.71 4.55 4.55 0 0 0-.58-.59 23.35 23.35 0 0 0 1.6-8.38 22.57 22.57 0 0 0-.61-5.18c-1.59-6.5-6.37-11.79-14.24-16a17.28 17.28 0 0 0 4.35-2.4c5.91-4.82 10.06-10.15 12.09-15.79 0-.11.07-.23.11-.34.13-.38.26-.76.37-1.14l.18-.7c.07-.26.14-.53.2-.8s.13-.66.19-1 .07-.36.09-.53c.07-.41.11-.82.15-1.23v-.3c0-.48.07-1 .08-1.43v-.09-.4c0-7.42-3.66-14.46-10.2-20.77l.42-.37a17.66 17.66 0 0 0-2-1.13c-13.5-11.94-37.51-21.07-66.56-24.93a13 13 0 0 0-1.05-1.05c-4.54-4-10.89-4.27-10.89-4.27a19.68 19.68 0 0 0 1.3 4.16c-6.63-.57-13.47-.86-20.47-.86-8 0-15.76.38-23.25 1.11a14.47 14.47 0 0 0-2.7-1C81.9 3.47 76.12 6.1 76.12 6.1a16.54 16.54 0 0 0 1.37 1.58C34.82 14.4 4.22 32.66 4.22 54.14c0 8.59 4.9 16.66 13.5 23.69a19.08 19.08 0 0 0 5.2 2.74C9.2 86.23 1.23 93.44 1.23 101.81c0 .6.05 1.2.11 1.8v.14a25.87 25.87 0 0 0 4.2 11.42 18 18 0 0 0-.72 2.26 23.13 23.13 0 0 0-.6 5.18 25.74 25.74 0 0 0 5.28 15.13 20.53 20.53 0 0 0-4.68 8.75 23.13 23.13 0 0 0-.6 5.18c0 7.32 3.57 14.27 9.94 20.52a11.94 11.94 0 0 0-3.78 2.3c-4.85 4-6.17 12.92-6.17 18.18 0 23.08 49 41.79 109.5 41.79s109.49-18.71 109.49-41.79a34 34 0 0 0-2.73-13.6z" fill="#e5e5e5"/></svg>