<svg xmlns="http://www.w3.org/2000/svg" viewBox="0 0 89.5 78" fill="currentColor"><path d="M26 .538c-15 0-25 12.3-25 26 0 12.8 7.3 24 16.2 32.7 8.9 8.8 19.6 15.3 26.9 19 .6.3 1.2.3 1.8 0 7.3-3.8 18-10.3 26.9-19 8.9-8.8 16.2-19.9 16.2-32.7 0-13.7-10-26-25-26-8.8 0-14.7 4.5-19 10.6-4.3-6.1-10.2-10.6-19-10.6zm0 4c8.6 0 13.3 4.3 17.3 11 .6.9 1.8 1.3 2.7.7.3-.2.5-.4.7-.7 4-6.7 8.7-11 17.3-11 12.8 0 21 10.2 21 22 0 11.3-6.5 21.5-15 29.8-8.2 8-18 14.2-25 17.8-7-3.7-16.8-9.8-25-17.8-8.5-8.3-15-18.5-15-29.8 0-11.8 8.2-22 21-22z"/></svg>