<svg xmlns="http://www.w3.org/2000/svg" width="178.1" height="56.3" viewBox="0 0 178.1 56.3"><style>.st0{display:none}.st1{display:inline;fill:#eaaa86}.st2{fill:#f4c0a6}.st2,.st3,.st4,.st5{display:inline}.st4,.st5{fill:#e28c61}.st5{fill:#d16642}.st6,.st7,.st8{display:inline;fill:#f9ba3a}.st7,.st8{fill:#eaa428}.st8{fill:#192744}.st10,.st11,.st9{display:inline;fill:#121a40}.st10,.st11{fill:#fff}.st11{fill:#f02820}.st12{fill:#8e8e8e}.st13{fill:#bfbfbf}.st14{opacity:.35}.st15{fill:#c98711}.st16{fill:#f9ba3a}.st17{fill:#a2c64a}.st18{fill:#d7d7d7}.st19{fill:#aeaeae}.st20{fill:#d9ef54}.st21{fill:#4d4d4d}.st22{fill:#999}.st23{fill:#616161}.st24{fill:#cc1f1f}.st25{fill:#ef5043}.st26{fill:#f02820}.st27{fill:#333}.st28{fill:#404040}.st29{fill:#261103}.st30{fill:#381904}.st31{fill:#a6a6a6}.st32{fill:#bababa}.st33{fill:#8c8c8c}.st34{fill:#737373}.st35{fill:#595959}.st36{fill:#eaa306}.st37{fill:#edc10c}.st38{fill:#ed9200}.st39{fill:#d17c00}.st40{fill:#d9d9d9}.st41{fill:#ccc}.st42{fill:#ffd833}.st43{fill:#f2ca25}.st44{fill:#666}.st45{fill:#ffd34d}.st46{fill:#858585}.st47{fill:#ed5858}.st48{fill:#f4c0a6}.st49{fill:#787878}.st50{fill:#bcbcbc}.st51{fill:#6d1d50}.st52{fill:#a55d8f}.st53{fill:#dba9ce}.st54{fill:#b3b3b3}.st55{fill:#262626}.st56{fill:#423620}.st57{fill:#353637}.st58{opacity:.5}.st59,.st60{opacity:.5;fill:#f02820}.st60{fill:#ffd34d}.st61{fill:#eabf68}.st62{fill:#fff}.st63{fill:#052870}.st64{fill:#c2c2c2}.st65{fill:#636363}.st66{fill:#252525}</style><g id="Calque_7"><path class="st40" d="M115.4 50.7L2.1 40.3c-1.9-.2-2.4-2.7-.7-3.6L68.2 1.9C71 .4 74.2-.2 77.4.1l98.6 9c2.3.2 3 3.2 1 4.4l-61.6 37.2z"/><path class="st41" d="M100.2 49.3s17.3.8 22.1-2.7l-9.2 9.8-12.9-7.1zM177 13.5l-3.5 7-2.3-3.5zM1.4 36.7s-3.6 1.5 1 9.7c0 0-.1-5.4 2.4-5.8 2-.4-4.5-.2-3.4-3.9z"/></g></svg>