<svg xmlns="http://www.w3.org/2000/svg" width="60.5" height="88.5" viewBox="0 0 60.5 88.5"><style>.st0{display:none}.st1{display:inline;fill:#eaaa86}.st2{fill:#f4c0a6}.st2,.st3,.st4,.st5{display:inline}.st4,.st5{fill:#e28c61}.st5{fill:#d16642}.st6,.st7,.st8{display:inline;fill:#f9ba3a}.st7,.st8{fill:#eaa428}.st8{fill:#192744}.st10,.st11,.st9{display:inline;fill:#121a40}.st10,.st11{fill:#fff}.st11{fill:#f02820}.st12{fill:#8e8e8e}.st13{fill:#bfbfbf}.st14{opacity:.35}.st15{fill:#c98711}.st16{fill:#f9ba3a}.st17{fill:#a2c64a}.st18{fill:#d7d7d7}.st19{fill:#aeaeae}.st20{fill:#d9ef54}.st21{fill:#4d4d4d}.st22{fill:#999}.st23{fill:#616161}.st24{fill:#cc1f1f}.st25{fill:#ef5043}.st26{fill:#f02820}.st27{fill:#333}.st28{fill:#404040}.st29{fill:#261103}.st30{fill:#381904}.st31{fill:#a6a6a6}.st32{fill:#bababa}.st33{fill:#8c8c8c}.st34{fill:#737373}.st35{fill:#595959}.st36{fill:#eaa306}.st37{fill:#edc10c}.st38{fill:#ed9200}.st39{fill:#d17c00}.st40{fill:#d9d9d9}.st41{fill:#ccc}.st42{fill:#ffd833}.st43{fill:#f2ca25}.st44{fill:#666}.st45{fill:#ffd34d}.st46{fill:#858585}.st47{fill:#ed5858}.st48{fill:#f4c0a6}.st49{fill:#787878}.st50{fill:#bcbcbc}.st51{fill:#6d1d50}.st52{fill:#a55d8f}.st53{fill:#dba9ce}.st54{fill:#b3b3b3}.st55{fill:#262626}.st56{fill:#423620}.st57{fill:#353637}.st58{opacity:.5}.st59,.st60{opacity:.5;fill:#f02820}.st60{fill:#ffd34d}.st61{fill:#eabf68}.st62{fill:#fff}.st63{fill:#052870}.st64{fill:#c2c2c2}.st65{fill:#636363}.st66{fill:#252525}</style><g id="Calque_16"><path class="st61" d="M-.1.1h3.3v88.2H-.1z"/><path class="st26" d="M-.1 2.1h60.4v2.7H-.1z"/><path class="st62" d="M-.1 4.8h60.4v2.7H-.1z"/><path class="st26" d="M-.1 7.6h60.4v2.7H-.1z"/><path class="st62" d="M-.1 10.3h60.4V13H-.1z"/><path class="st26" d="M-.1 13.1h60.4v2.7H-.1z"/><path class="st62" d="M-.1 15.8h60.4v2.7H-.1z"/><path class="st26" d="M-.1 18.6h60.4v2.7H-.1z"/><path class="st62" d="M-.1 21.3h60.4V24H-.1z"/><path class="st26" d="M-.1 24.1h60.4v2.7H-.1z"/><path class="st62" d="M-.1 26.8h60.4v2.7H-.1z"/><path class="st26" d="M-.1 29.5h60.4v2.7H-.1z"/><path class="st62" d="M-.1 32.3h60.4V35H-.1z"/><path class="st26" d="M-.1 35h60.4v2.7H-.1z"/><path class="st63" d="M-.1 2.1h30.2v19.2H-.1z"/><path class="st62" d="M5.1 3.3l.5 1 1.2.2-.9.8.2 1.1-1-.5-1 .5.2-1.1-.8-.8 1.1-.2zM10 3.3l.6 1 1.1.2-.8.8.2 1.1-1.1-.5-1 .5.2-1.1-.8-.8 1.1-.2zM15 3.3l.5 1 1.1.2-.8.8.2 1.1-1-.5-1 .5.2-1.1-.9-.8 1.2-.2zM19.9 3.3l.5 1 1.1.2-.8.8.2 1.1-1-.5-1 .5.2-1.1-.8-.8 1.1-.2zM24.8 3.3l.5 1 1.1.2-.8.8.2 1.1-1-.5-1 .5.2-1.1-.8-.8 1.1-.2zM5.1 11.7l.5 1 1.2.2-.9.8.2 1.1-1-.5-1 .5.2-1.1-.8-.8 1.1-.2zM10 11.7l.6 1 1.1.2-.8.8.2 1.1-1.1-.5-1 .5.2-1.1-.8-.8 1.1-.2zM15 11.7l.5 1 1.1.2-.8.8.2 1.1-1-.5-1 .5.2-1.1-.9-.8 1.2-.2zM19.9 11.7l.5 1 1.1.2-.8.8.2 1.1-1-.5-1 .5.2-1.1-.8-.8 1.1-.2zM24.8 11.7l.5 1 1.1.2-.8.8.2 1.1-1-.5-1 .5.2-1.1-.8-.8 1.1-.2zM7.7 7.5l.5 1 1.2.2-.9.8.2 1.1-1-.5-1 .5.2-1.1-.8-.8 1.1-.2zM2.6 7.5l.5 1 1.1.2-.8.8.2 1.1-1-.5-1 .5.2-1.1-.8-.8 1.1-.2zM12.7 7.5l.5 1 1.1.2-.8.8.2 1.1-1-.5-1 .5.1-1.1-.8-.8 1.2-.2zM17.6 7.5l.5 1 1.1.2-.8.8.2 1.1-1-.5-1 .5.2-1.1-.8-.8 1.1-.2zM22.5 7.5l.5 1 1.1.2-.8.8.2 1.1-1-.5-1 .5.2-1.1-.8-.8 1.1-.2zM27.4 7.5l.5 1 1.1.2-.8.8.2 1.1-1-.5-1 .5.2-1.1-.8-.8 1.1-.2zM7.7 16.1l.5 1 1.2.2-.9.7.2 1.2-1-.6-1 .6.2-1.2-.8-.7 1.1-.2zM2.6 16.1l.5 1 1.1.2-.8.7.2 1.2-1-.6-1 .6.2-1.2-.8-.7 1.1-.2zM12.7 16.1l.5 1 1.1.2-.8.7.2 1.2-1-.6-1 .6.1-1.2-.8-.7 1.2-.2zM17.6 16.1l.5 1 1.1.2-.8.7.2 1.2-1-.6-1 .6.2-1.2-.8-.7 1.1-.2zM22.5 16.1l.5 1 1.1.2-.8.7.2 1.2-1-.6-1 .6.2-1.2-.8-.7 1.1-.2zM27.4 16.1l.5 1 1.1.2-.8.7.2 1.2-1-.6-1 .6.2-1.2-.8-.7 1.1-.2z"/></g></svg>