<svg xmlns="http://www.w3.org/2000/svg" width="60.5" height="88.5"><style>.st26{fill:#f02820}.st62{fill:#fff}</style><path d="M-.1.1h3.3v88.2H-.1z" fill="#eabf68"/><path class="st26" d="M-.1 2.1h60.4v2.7H-.1z"/><path class="st62" d="M-.1 4.8h60.4v2.7H-.1z"/><path class="st26" d="M-.1 7.6h60.4v2.7H-.1z"/><path class="st62" d="M-.1 10.3h60.4V13H-.1z"/><path class="st26" d="M-.1 13.1h60.4v2.7H-.1z"/><path class="st62" d="M-.1 15.8h60.4v2.7H-.1z"/><path class="st26" d="M-.1 18.6h60.4v2.7H-.1z"/><path class="st62" d="M-.1 21.3h60.4V24H-.1z"/><path class="st26" d="M-.1 24.1h60.4v2.7H-.1z"/><path class="st62" d="M-.1 26.8h60.4v2.7H-.1z"/><path class="st26" d="M-.1 29.5h60.4v2.7H-.1z"/><path class="st62" d="M-.1 32.3h60.4V35H-.1z"/><path class="st26" d="M-.1 35h60.4v2.7H-.1z"/><path d="M-.1 2.1h30.2v19.2H-.1z" fill="#052870"/><path class="st62" d="M5.1 3.3l.5 1 1.2.2-.9.8.2 1.1-1-.5-1 .5.2-1.1-.8-.8 1.1-.2zm4.9 0l.6 1 1.1.2-.8.8.2 1.1-1.1-.5-1 .5.2-1.1-.8-.8 1.1-.2zm5 0l.5 1 1.1.2-.8.8.2 1.1-1-.5-1 .5.2-1.1-.9-.8 1.2-.2zm4.9 0l.5 1 1.1.2-.8.8.2 1.1-1-.5-1 .5.2-1.1-.8-.8 1.1-.2zm4.9 0l.5 1 1.1.2-.8.8.2 1.1-1-.5-1 .5.2-1.1-.8-.8 1.1-.2zM5.1 11.7l.5 1 1.2.2-.9.8.2 1.1-1-.5-1 .5.2-1.1-.8-.8 1.1-.2zm4.9 0l.6 1 1.1.2-.8.8.2 1.1-1.1-.5-1 .5.2-1.1-.8-.8 1.1-.2zm5 0l.5 1 1.1.2-.8.8.2 1.1-1-.5-1 .5.2-1.1-.9-.8 1.2-.2zm4.9 0l.5 1 1.1.2-.8.8.2 1.1-1-.5-1 .5.2-1.1-.8-.8 1.1-.2zm4.9 0l.5 1 1.1.2-.8.8.2 1.1-1-.5-1 .5.2-1.1-.8-.8 1.1-.2zM7.7 7.5l.5 1 1.2.2-.9.8.2 1.1-1-.5-1 .5.2-1.1-.8-.8 1.1-.2zm-5.1 0l.5 1 1.1.2-.8.8.2 1.1-1-.5-1 .5.2-1.1-.8-.8 1.1-.2zm10.1 0l.5 1 1.1.2-.8.8.2 1.1-1-.5-1 .5.1-1.1-.8-.8 1.2-.2zm4.9 0l.5 1 1.1.2-.8.8.2 1.1-1-.5-1 .5.2-1.1-.8-.8 1.1-.2zm4.9 0l.5 1 1.1.2-.8.8.2 1.1-1-.5-1 .5.2-1.1-.8-.8 1.1-.2zm4.9 0l.5 1 1.1.2-.8.8.2 1.1-1-.5-1 .5.2-1.1-.8-.8 1.1-.2zM7.7 16.1l.5 1 1.2.2-.9.7.2 1.2-1-.6-1 .6.2-1.2-.8-.7 1.1-.2zm-5.1 0l.5 1 1.1.2-.8.7.2 1.2-1-.6-1 .6.2-1.2-.8-.7 1.1-.2zm10.1 0l.5 1 1.1.2-.8.7.2 1.2-1-.6-1 .6.1-1.2-.8-.7 1.2-.2zm4.9 0l.5 1 1.1.2-.8.7.2 1.2-1-.6-1 .6.2-1.2-.8-.7 1.1-.2zm4.9 0l.5 1 1.1.2-.8.7.2 1.2-1-.6-1 .6.2-1.2-.8-.7 1.1-.2zm4.9 0l.5 1 1.1.2-.8.7.2 1.2-1-.6-1 .6.2-1.2-.8-.7 1.1-.2z"/></svg>