<svg xmlns="http://www.w3.org/2000/svg" width="219" height="71.2" viewBox="0 0 219 71.2"><style>.st0{display:none}.st1{display:inline;fill:#eaaa86}.st2{fill:#f4c0a6}.st2,.st3,.st4,.st5{display:inline}.st4,.st5{fill:#e28c61}.st5{fill:#d16642}.st6,.st7,.st8{display:inline;fill:#f9ba3a}.st7,.st8{fill:#eaa428}.st8{fill:#192744}.st10,.st11,.st9{display:inline;fill:#121a40}.st10,.st11{fill:#fff}.st11{fill:#f02820}.st12{fill:#8e8e8e}.st13{fill:#bfbfbf}.st14{opacity:.35}.st15{fill:#c98711}.st16{fill:#f9ba3a}.st17{fill:#a2c64a}.st18{fill:#d7d7d7}.st19{fill:#aeaeae}.st20{fill:#d9ef54}.st21{fill:#4d4d4d}.st22{fill:#999}.st23{fill:#616161}.st24{fill:#cc1f1f}.st25{fill:#ef5043}.st26{fill:#f02820}.st27{fill:#333}.st28{fill:#404040}.st29{fill:#261103}.st30{fill:#381904}.st31{fill:#a6a6a6}.st32{fill:#bababa}.st33{fill:#8c8c8c}.st34{fill:#737373}.st35{fill:#595959}.st36{fill:#eaa306}.st37{fill:#edc10c}.st38{fill:#ed9200}.st39{fill:#d17c00}.st40{fill:#d9d9d9}.st41{fill:#ccc}.st42{fill:#ffd833}.st43{fill:#f2ca25}.st44{fill:#666}.st45{fill:#ffd34d}.st46{fill:#858585}.st47{fill:#ed5858}.st48{fill:#f4c0a6}.st49{fill:#787878}.st50{fill:#bcbcbc}.st51{fill:#6d1d50}.st52{fill:#a55d8f}.st53{fill:#dba9ce}.st54{fill:#b3b3b3}.st55{fill:#262626}.st56{fill:#423620}.st57{fill:#353637}.st58{opacity:.5}.st59,.st60{opacity:.5;fill:#f02820}.st60{fill:#ffd34d}.st61{fill:#eabf68}.st62{fill:#fff}.st63{fill:#052870}.st64{fill:#c2c2c2}.st65{fill:#636363}.st66{fill:#252525}</style><g id="Calque_5"><path class="st36" d="M116.3 50.8c-49.4 0-92.5-8-115.7-19.9-.4 1.7-.6 3.4-.6 5.2 0 8.6 4.9 16.7 13.5 23.7 18.6 15.2 173.4 15.2 192 0 8.5-6.9 13.3-14.9 13.5-23.3-24.6 8.7-61.5 14.3-102.7 14.3z"/><path class="st37" d="M217.1 29.6s-.2-3.2-2.1-5.7c-1.9-2.5-10.9-5.5-10.9-5.5l-3.4-2.8-7.2-1.8c-2.2-.8-4.5-1.5-6.9-2.3l-1.9-1.9-15.9-2.3-7.6-2.4h-7.9l-7-2.1s-15.5 0-17.7-.7c-2.2-.7-6.6-2-6.6-2l-16.5 2s-7.8 0-9.5-1.6c-1.7-1.6-14.3 2.1-15.7 1.4-1.3-.8-11.7 1.3-13.7.1S52.3 4.8 50 4.8s-8 0-9.9-.6c-1.9-.6-9.5 4.7-11.5 5.2s-5.1.1-5.1.1-6.8 4.3-8.7 5.3c-1.9 1-6 1.4-6 1.4C7.4 15 2 27 2 27 1.4 28.3.9 29.6.6 30.9-4.3 51 52.1 51 116.4 51 180.8 51 219 57.2 219 36.4c0-2.3-.7-4.6-1.9-6.8z"/><path class="st38" d="M37.2 29c-4.9 2-5.9-2-5.9-2l5.9 2zM109.6 23.9c-2-3.1-5.9-4.8-5.9-4.8l5.9 4.8zM164.4 30.9c-12.7.3-11.1-3.9-11.1-3.9l11.1 3.9zM74.9 16.3c-4.9-3.1-10.8 0-10.8 0h10.8zM71 37.9c-10.7-.1-7-7-7-7l7 7zM141.9 13.5c-.5-2.9-6.4-3.9-6.4-3.9l6.4 3.9zM109.5 39.9c-5.5 3.9-9.2 0-9.2 0h9.2zM134.6 34.4c-7.3-1.1-3.5-3.5-3.5-3.5l3.5 3.5zM200.7 39.9c4.9.5 0-10.3 0-10.3v10.3zM178.1 20.6c.9-5.5-10.8-4.4-10.8-4.4l10.8 4.4zM45.4 9.6c-4-1-5.3 5.3-5.3 5.3l5.3-5.3z"/><path class="st39" d="M37.2 61.5c-1-3.9-5.9-2.9-5.9-2.9l5.9 2.9zM103.7 60c-6.9 1.5-6.4-1.5-6.4-1.5l6.4 1.5zM156.1 61.5c-2.5-7.9-14.2-3-14.2-3l14.2 3zM69.5 64.8c-7.8-.6-5.4-5.4-5.4-5.4l5.4 5.4zM182.5 58.4c-8.8 2.8-9.8.8-9.8.8l9.8-.8z"/></g></svg>