<svg xmlns="http://www.w3.org/2000/svg" width="219" height="71.2"><path d="M116.3 50.8c-49.4 0-92.5-8-115.7-19.9-.4 1.7-.6 3.4-.6 5.2 0 8.6 4.9 16.7 13.5 23.7 18.6 15.2 173.4 15.2 192 0 8.5-6.9 13.3-14.9 13.5-23.3-24.6 8.7-61.5 14.3-102.7 14.3z" fill="#eaa306"/><path d="M217.1 29.6s-.2-3.2-2.1-5.7c-1.9-2.5-10.9-5.5-10.9-5.5l-3.4-2.8-7.2-1.8c-2.2-.8-4.5-1.5-6.9-2.3l-1.9-1.9-15.9-2.3-7.6-2.4h-7.9l-7-2.1s-15.5 0-17.7-.7c-2.2-.7-6.6-2-6.6-2l-16.5 2s-7.8 0-9.5-1.6c-1.7-1.6-14.3 2.1-15.7 1.4-1.3-.8-11.7 1.3-13.7.1S52.3 4.8 50 4.8s-8 0-9.9-.6c-1.9-.6-9.5 4.7-11.5 5.2s-5.1.1-5.1.1-6.8 4.3-8.7 5.3c-1.9 1-6 1.4-6 1.4C7.4 15 2 27 2 27 1.4 28.3.9 29.6.6 30.9-4.3 51 52.1 51 116.4 51 180.8 51 219 57.2 219 36.4c0-2.3-.7-4.6-1.9-6.8z" fill="#edc10c"/><path d="M37.2 29c-4.9 2-5.9-2-5.9-2l5.9 2zm72.4-5.1c-2-3.1-5.9-4.8-5.9-4.8l5.9 4.8zm54.8 7c-12.7.3-11.1-3.9-11.1-3.9l11.1 3.9zM74.9 16.3c-4.9-3.1-10.8 0-10.8 0h10.8zM71 37.9c-10.7-.1-7-7-7-7l7 7zm70.9-24.4c-.5-2.9-6.4-3.9-6.4-3.9l6.4 3.9zm-32.4 26.4c-5.5 3.9-9.2 0-9.2 0h9.2zm25.1-5.5c-7.3-1.1-3.5-3.5-3.5-3.5l3.5 3.5zm66.1 5.5c4.9.5 0-10.3 0-10.3v10.3zm-22.6-19.3c.9-5.5-10.8-4.4-10.8-4.4l10.8 4.4zM45.4 9.6c-4-1-5.3 5.3-5.3 5.3l5.3-5.3z" fill="#ed9200"/><path d="M37.2 61.5c-1-3.9-5.9-2.9-5.9-2.9l5.9 2.9zm66.5-1.5c-6.9 1.5-6.4-1.5-6.4-1.5l6.4 1.5zm52.4 1.5c-2.5-7.9-14.2-3-14.2-3l14.2 3zm-86.6 3.3c-7.8-.6-5.4-5.4-5.4-5.4l5.4 5.4zm113-6.4c-8.8 2.8-9.8.8-9.8.8l9.8-.8z" fill="#d17c00"/></svg>