<svg xmlns="http://www.w3.org/2000/svg" width="181.5" height="53.6"><path d="M101.7 53.5c-11.5.8-23.6-2.6-35.4-7.9-6.5-2.9-14-4.6-21.3-6.3-11.2-2.7-22.6-4.8-33.7-7.5C5.7 30.5.3 28.6.1 23.1c-.2-4.9 2.8-8.7 10.9-10.3C21.6 10.6 32.6 9 43.5 8.3 55 7.5 66.3 6.8 76.9 2.8c9.1-3.5 19-3.4 28.7-1.1 12.5 3 24.9 4.3 38 3 12.4-1.2 32 8.4 37 17.1 2.4 4.2-.4 9.9-5.5 12.5-2.5 1.2-3.8 3.7-6.3 5.1-4.5 2.4-9.2 4.8-14.1 6.5-17.9 6.2-30 7.9-53 7.6zm-17.1-3.7c15.5 3.2 30.9 3.2 45.7.8-14.9-.3-30.3-.6-45.7-.8zM13.4 29.9c-.2.4-.3.8-.5 1.2 7.4 1.6 14.8 3.3 22.2 4.9.1-.4.3-.8.4-1.2-7.3-1.7-14.7-3.3-22.1-4.9z" fill="#f02820"/></svg>