<svg xmlns="http://www.w3.org/2000/svg" width="174.6" height="41.2" viewBox="0 0 174.6 41.2"><style>.st0{display:none}.st1{display:inline;fill:#eaaa86}.st2{fill:#f4c0a6}.st2,.st3,.st4,.st5{display:inline}.st4,.st5{fill:#e28c61}.st5{fill:#d16642}.st6,.st7,.st8{display:inline;fill:#f9ba3a}.st7,.st8{fill:#eaa428}.st8{fill:#192744}.st10,.st11,.st9{display:inline;fill:#121a40}.st10,.st11{fill:#fff}.st11{fill:#f02820}.st12{fill:#8e8e8e}.st13{fill:#bfbfbf}.st14{opacity:.35}.st15{fill:#c98711}.st16{fill:#f9ba3a}.st17{fill:#a2c64a}.st18{fill:#d7d7d7}.st19{fill:#aeaeae}.st20{fill:#d9ef54}.st21{fill:#4d4d4d}.st22{fill:#999}.st23{fill:#616161}.st24{fill:#cc1f1f}.st25{fill:#ef5043}.st26{fill:#f02820}.st27{fill:#333}.st28{fill:#404040}.st29{fill:#261103}.st30{fill:#381904}.st31{fill:#a6a6a6}.st32{fill:#bababa}.st33{fill:#8c8c8c}.st34{fill:#737373}.st35{fill:#595959}.st36{fill:#eaa306}.st37{fill:#edc10c}.st38{fill:#ed9200}.st39{fill:#d17c00}.st40{fill:#d9d9d9}.st41{fill:#ccc}.st42{fill:#ffd833}.st43{fill:#f2ca25}.st44{fill:#666}.st45{fill:#ffd34d}.st46{fill:#858585}.st47{fill:#ed5858}.st48{fill:#f4c0a6}.st49{fill:#787878}.st50{fill:#bcbcbc}.st51{fill:#6d1d50}.st52{fill:#a55d8f}.st53{fill:#dba9ce}.st54{fill:#b3b3b3}.st55{fill:#262626}.st56{fill:#423620}.st57{fill:#353637}.st58{opacity:.5}.st59,.st60{opacity:.5;fill:#f02820}.st60{fill:#ffd34d}.st61{fill:#eabf68}.st62{fill:#fff}.st63{fill:#052870}.st64{fill:#c2c2c2}.st65{fill:#636363}.st66{fill:#252525}</style><g id="Calque_11"><path class="st51" d="M57.2 21.2c-24.2 0-44.7-4.6-56.1-10.4-.2.8-.9 2.3-.9 3.2 0 4.2 2.4 8.2 6.6 11.6 9.1 7.5 85.1 7.5 94.2 0 4.2-3.4 6.4-7.9 6.5-12-12.1 4.3-30.1 7.6-50.3 7.6z"/><ellipse class="st52" cx="54" cy="12.8" rx="53.6" ry="12.8"/><path class="st53" d="M53.7 25.6C24.2 25.6 1 20 1 12.8S24.2 0 53.7 0c29.6 0 52.8 5.6 52.8 12.8S83.3 25.6 53.7 25.6zm0-25.1C24.9.5 1.5 6 1.5 12.8s23.4 12.3 52.3 12.3c28.8 0 52.3-5.5 52.3-12.3S82.6.5 53.7.5z"/><path class="st53" d="M53.7 23.5c-28.3 0-50.4-4.7-50.4-10.7S25.5 2.1 53.7 2.1s50.4 4.7 50.4 10.7S82 23.5 53.7 23.5zm0-20.9C26.2 2.6 3.8 7.2 3.8 12.8S26.2 23 53.7 23s49.9-4.6 49.9-10.2S81.3 2.6 53.7 2.6z"/><path class="st53" d="M56.8 22h-2.2c-18.9-.2-46.9-2.9-46.8-9.9C7.8 5.9 31 3 52.5 3h2.2c18.9.2 46.9 2.9 46.8 9.9 0 6.3-23.2 9.1-44.7 9.1zM52.5 5C26.1 5 9.8 9.2 9.7 12.1c0 3.1 17 7.6 44.9 7.9h2.2c26.5 0 42.8-4.1 42.8-7.1 0-3.1-17-7.6-44.9-7.9h-2.2z"/><path class="st53" d="M56.5 20.3h-2.2c-20.7-.2-42.6-3.1-42.6-8.1 0-4.8 20.4-7.4 40.5-7.4h2.2C75.1 5 97.1 7.9 97 12.9c0 4.9-20.4 7.4-40.5 7.4zM52.3 5.8c-23.6 0-39.5 3.3-39.5 6.4 0 3.2 17 6.9 41.6 7.1h2.2C80.1 19.3 96 16 96 12.9 96 9.7 79 6 54.4 5.8h-2.1z"/><path class="st53" d="M55 19.1h-1.8c-9.6-.1-18.7-.8-25.5-2-7.3-1.3-10.9-3-10.9-5 0-4.2 17.5-6.4 34.7-6.4h1.8c17.7.2 36.5 2.7 36.4 7 0 4.3-17.5 6.4-34.7 6.4zM51.4 6.8c-20.1 0-33.7 2.8-33.7 5.4 0 1 2.6 2.6 10.1 4 6.8 1.2 15.8 1.9 25.3 2h1.8c20.1 0 33.7-2.8 33.7-5.4 0-2.7-14.5-5.8-35.4-6h-1.8z"/><path class="st53" d="M54.9 18.1h-2c-8.7-.1-17-.6-23.1-1.6-10-1.5-10-3.3-10-3.9 0-3.9 20.4-4.9 31.2-4.9h2c8.7.1 17 .6 23.1 1.6 10 1.5 10 3.3 10 3.9-.1 3.8-20.4 4.9-31.2 4.9zm-4-9.4c-19.4 0-30.2 2.3-30.2 3.9 0 .5 1.9 1.8 9.1 2.9 6.1.9 14.3 1.5 23 1.6h2c19.4 0 30.2-2.3 30.2-3.9 0-.5-1.9-1.8-9.1-2.9-6.1-.9-14.3-1.5-23-1.6h-2z"/><path class="st53" d="M57.4 16.4h-2.5c-.3 0-31.6-.3-31.6-4.2 0-3.5 26.2-3.6 29.1-3.6h2.5c8.3.1 16.2.5 22 1.2 9.5 1.1 9.5 2.4 9.5 3 .1 3.5-26 3.6-29 3.6zm-4.9-6.8c-17.5 0-27.6 1.6-28.1 2.7.5 1.1 11.8 3 30.6 3.1h2.5c17.5 0 27.6-1.6 28.2-2.7-.5-1.1-11.8-3-30.6-3.1h-2.6z"/><path class="st53" d="M57.9 14.3h-3.3c-7.2-.1-13.9-.3-19-.7-8.3-.7-8.3-1.3-8.3-1.9 0-.5 0-1.2 7.3-1.7 5.1-.4 12.3-.5 20.1-.5 7.2.1 13.9.3 19 .7 8.3.7 8.3 1.4 8.3 1.9s0 1.2-7.3 1.7c-4.4.4-10.3.5-16.8.5zm-29.1-2.6c2.4.7 11.6 1.5 25.8 1.6h3.3c13 0 20.4-.6 22.5-1.2-2.4-.7-11.6-1.5-25.8-1.6h-3.3c-12.9 0-20.4.6-22.5 1.2z"/><g><path class="st51" d="M124.2 31.2c-24.2 0-44.7-4.6-56.1-10.4-.2.8-.9 2.3-.9 3.2 0 4.2 2.4 8.2 6.6 11.6 9.1 7.5 85.1 7.5 94.2 0 4.2-3.4 6.4-7.9 6.5-12-12.1 4.3-30.1 7.6-50.3 7.6z"/><ellipse class="st52" cx="121" cy="22.7" rx="53.6" ry="12.8"/><path class="st53" d="M120.8 35.5C91.2 35.5 68 29.9 68 22.7S91.2 10 120.8 10c29.6 0 52.8 5.6 52.8 12.8s-23.2 12.7-52.8 12.7zm0-25C92 10.5 68.5 16 68.5 22.7S92 35 120.8 35c28.8 0 52.3-5.5 52.3-12.3s-23.5-12.2-52.3-12.2z"/><path class="st53" d="M120.8 33.4c-28.3 0-50.4-4.7-50.4-10.7S92.6 12 120.8 12s50.4 4.7 50.4 10.7-22.1 10.7-50.4 10.7zm0-20.8c-27.5 0-49.9 4.6-49.9 10.2S93.3 33 120.8 33s49.9-4.6 49.9-10.2-22.4-10.2-49.9-10.2z"/><path class="st53" d="M123.8 32h-2.2c-18.9-.2-46.9-2.9-46.8-9.9 0-6.3 23.2-9.1 44.8-9.1h2.2c18.9.2 46.9 2.9 46.8 9.9-.1 6.2-23.3 9.1-44.8 9.1zm-4.2-17c-26.5 0-42.8 4.1-42.8 7.1 0 3.1 17 7.6 44.9 7.9h2.2c26.5 0 42.8-4.1 42.8-7.1 0-3.1-17-7.6-44.9-7.9h-2.2z"/><path class="st53" d="M123.5 30.3h-2.2c-20.7-.2-42.6-3.1-42.6-8.1 0-4.8 20.4-7.4 40.5-7.4h2.2c20.7.2 42.6 3.1 42.6 8.1 0 4.8-20.4 7.4-40.5 7.4zm-4.2-14.5c-23.6 0-39.5 3.3-39.5 6.4 0 3.2 17 6.9 41.6 7.1h2.2c23.6 0 39.5-3.3 39.5-6.4 0-3.2-17-6.9-41.6-7.1h-2.2z"/><path class="st53" d="M122 29.1h-1.8c-9.6-.1-18.7-.8-25.5-2-7.3-1.3-10.9-3-10.9-5 0-4.2 17.5-6.4 34.7-6.4h1.8c17.7.2 36.5 2.7 36.4 7 0 4.2-17.5 6.4-34.7 6.4zm-3.5-12.4c-20.1 0-33.7 2.8-33.7 5.4 0 1 2.6 2.6 10.1 4 6.8 1.2 15.8 1.9 25.3 2h1.8c20.1 0 33.7-2.8 33.7-5.4 0-2.7-14.5-5.8-35.4-6h-1.8z"/><path class="st53" d="M121.9 28h-2c-8.7-.1-17-.6-23.1-1.6-10-1.5-10-3.3-10-3.9 0-3.9 20.4-4.9 31.2-4.9h2c8.7.1 17 .6 23.1 1.6 10 1.5 10 3.3 10 3.9 0 3.9-20.4 4.9-31.2 4.9zm-3.9-9.3c-19.4 0-30.2 2.3-30.2 3.9 0 .5 1.9 1.8 9.1 2.9 6.1.9 14.3 1.5 23 1.6h2c19.4 0 30.2-2.3 30.2-3.9 0-.5-1.9-1.8-9.1-2.9-6.1-.9-14.3-1.5-23-1.6h-2z"/><path class="st53" d="M124.4 26.3h-2.5c-.3 0-31.6-.3-31.6-4.2 0-3.5 26.2-3.6 29.1-3.6h2.5c8.3.1 16.2.5 22 1.2 9.5 1.1 9.5 2.4 9.5 3 .1 3.5-26 3.6-29 3.6zm-4.9-6.8c-17.5 0-27.6 1.6-28.1 2.7.5 1.1 11.8 3 30.6 3.1h2.5c17.5 0 27.6-1.6 28.2-2.7-.5-1.1-11.8-3-30.6-3.1h-2.6z"/><path class="st53" d="M124.9 24.3h-3.3c-7.2-.1-13.9-.3-19-.7-8.3-.7-8.3-1.3-8.3-1.9 0-.5 0-1.2 7.3-1.7 5.1-.4 12.3-.5 20.1-.5 7.2.1 13.9.3 19 .7 8.3.7 8.3 1.4 8.3 1.9s0 1.2-7.3 1.7c-4.4.3-10.3.5-16.8.5zm-29.1-2.7c2.4.7 11.6 1.5 25.8 1.6h3.3c13 0 20.4-.6 22.5-1.2-2.4-.7-11.6-1.5-25.8-1.6h-3.3c-12.9.1-20.4.7-22.5 1.2z"/></g></g></svg>