<svg xmlns="http://www.w3.org/2000/svg" width="219" height="87.6"><path d="M219 52.5c0 8.6-4.9 16.7-13.5 23.7-18.6 15.2-173.4 15.2-192 0C4.9 69.2 0 61.1 0 52.5 0 25.3 49 3.3 109.5 3.3S219 25.3 219 52.5z" fill="#f9ba3a"/><path d="M116.3 67.3c-49.4 0-92.5-8-115.7-19.9-.4 1.7-.6 3.4-.6 5.2 0 8.6 4.9 16.7 13.5 23.7 18.6 15.2 173.4 15.2 192 0C214 69.4 218.8 61.4 219 53c-24.6 8.7-61.5 14.3-102.7 14.3z" fill="#c98711"/><path d="M139.6 4.3c4.5 4 5.6 10.3 5.6 10.3s-6.3-.3-10.9-4.3S128.7 0 128.7 0s6.3.3 10.9 4.3zm6.5 50.9c5.9 1.4 9.7 6.5 9.7 6.5s-5.7 2.7-11.6 1.3c-5.9-1.4-9.7-6.5-9.7-6.5s5.7-2.7 11.6-1.3zm51.8-26.9c6-.5 11.3 3 11.3 3s-4.5 4.4-10.6 5c-6 .5-11.3-3-11.3-3s4.5-4.4 10.6-5zM42.7 19.6c5.6 2.4 8.5 8.1 8.5 8.1S45 29.4 39.5 27 31 18.9 31 18.9s6.1-1.7 11.7.7zm70.6 39.9c-2.4 5.6-8 8.5-8 8.5s-1.7-6.1.7-11.7 8-8.5 8-8.5 1.7 6.1-.7 11.7zM94.8 30.7c5.5 2.5 8.4 8.2 8.4 8.2s-6.1 1.6-11.7-.9c-5.5-2.5-8.4-8.2-8.4-8.2s6.2-1.6 11.7.9zM19.7 48.9c-2 5.7-7.5 9-7.5 9s-2.1-6-.1-11.7 7.5-9 7.5-9 2.1 5.9.1 11.7zm151.6-33.8c5.9 1.6 9.6 6.7 9.6 6.7s-5.8 2.6-11.7 1.1-9.6-6.7-9.6-6.7 5.8-2.7 11.7-1.1zM83.5 3.4c5.9 1.5 9.6 6.7 9.6 6.7s-5.8 2.6-11.7 1.1c-5.9-1.5-9.6-6.7-9.6-6.7s5.9-2.7 11.7-1.1zM67.6 55.1c6 .8 10.4 5.4 10.4 5.4s-5.4 3.4-11.4 2.6-10.4-5.4-10.4-5.4 5.4-3.3 11.4-2.6zm59.6-29.5c5.6-2.3 11.7-.4 11.7-.4s-3.1 5.6-8.7 7.8c-5.6 2.3-11.7.4-11.7.4s3-5.5 8.7-7.8zm-70.9 8.8c6.1.2 10.9 4.4 10.9 4.4s-5 3.9-11.1 3.7-10.9-4.4-10.9-4.4 5-3.9 11.1-3.7zm125 11.3c6.1.1 10.9 4.2 10.9 4.2s-5 3.9-11 3.9-10.9-4.2-10.9-4.2 4.9-4 11-3.9z" fill="#423620"/></svg>