<svg xmlns="http://www.w3.org/2000/svg" width="160.3" height="92.2"><path d="M155.5 63.3s1.9 13.8-62.9 26-14.8-18.6-14.8-18.6-36.1-2.5-41.6 5.8-28.7-12.1 3-24.3-25.6-13.7-25.6-13.7-35.2-14.1 7.7-23 50.9 11.6 50.9 11.6 13.4-2.8 9.9-18.3S95.5 2.4 102 5.9s6.7 27.1 14.3 29.5c7.6 2.4 2.7-11.4 14.7-10.8 12 .6 15 10.7 17.2 18.2s12.1 12.8 12.1 12.8l-4.8 7.7z" fill="#d9ef54"/><path d="M145.9 59.6s-40.9 3.5-49.1-5.2-30.4-17.6-30.4-17.6S42 20.9 28.1 25.1c0 0 102.1 20.9 117.8 34.5zm-11.7 3.6s-24.2 12.5-31.5 9.5l31.5-9.5zm-42.6-5.6s-20.5-13-31-5.5l31 5.5zm46.3-7.5s2.6-11.2-4.8-16.1l4.8 16.1zM41 61.6c-7.6-1.2-9.7 6.4-9.7 6.4l9.7-6.4z" fill="#a2c64a"/></svg>