<svg xmlns="http://www.w3.org/2000/svg" width="165.2" height="36.8" viewBox="0 0 165.2 36.8"><style>.st0{display:none}.st1{display:inline;fill:#eaaa86}.st2{fill:#f4c0a6}.st2,.st3,.st4,.st5{display:inline}.st4,.st5{fill:#e28c61}.st5{fill:#d16642}.st6,.st7,.st8{display:inline;fill:#f9ba3a}.st7,.st8{fill:#eaa428}.st8{fill:#192744}.st10,.st11,.st9{display:inline;fill:#121a40}.st10,.st11{fill:#fff}.st11{fill:#f02820}.st12{fill:#8e8e8e}.st13{fill:#bfbfbf}.st14{opacity:.35}.st15{fill:#c98711}.st16{fill:#f9ba3a}.st17{fill:#a2c64a}.st18{fill:#d7d7d7}.st19{fill:#aeaeae}.st20{fill:#d9ef54}.st21{fill:#4d4d4d}.st22{fill:#999}.st23{fill:#616161}.st24{fill:#cc1f1f}.st25{fill:#ef5043}.st26{fill:#f02820}.st27{fill:#333}.st28{fill:#404040}.st29{fill:#261103}.st30{fill:#381904}.st31{fill:#a6a6a6}.st32{fill:#bababa}.st33{fill:#8c8c8c}.st34{fill:#737373}.st35{fill:#595959}.st36{fill:#eaa306}.st37{fill:#edc10c}.st38{fill:#ed9200}.st39{fill:#d17c00}.st40{fill:#d9d9d9}.st41{fill:#ccc}.st42{fill:#ffd833}.st43{fill:#f2ca25}.st44{fill:#666}.st45{fill:#ffd34d}.st46{fill:#858585}.st47{fill:#ed5858}.st48{fill:#f4c0a6}.st49{fill:#787878}.st50{fill:#bcbcbc}.st51{fill:#6d1d50}.st52{fill:#a55d8f}.st53{fill:#dba9ce}.st54{fill:#b3b3b3}.st55{fill:#262626}.st56{fill:#423620}.st57{fill:#353637}.st58{opacity:.5}.st59,.st60{opacity:.5;fill:#f02820}.st60{fill:#ffd34d}.st61{fill:#eabf68}.st62{fill:#fff}.st63{fill:#052870}.st64{fill:#c2c2c2}.st65{fill:#636363}.st66{fill:#252525}</style><g id="Calque_12"><path class="st21" d="M54.3 27.3c-23.1 0-42.6-4.3-53.4-9.9-.2.8-.9 2.2-.9 3 0 4 2.3 7.8 6.3 11.1 8.7 7.1 81 7.1 89.7 0 4-3.2 6.1-7.5 6.2-11.4-11.5 4-28.6 7.2-47.9 7.2z"/><ellipse class="st22" cx="51.3" cy="19.2" rx="51" ry="12.2"/><path class="st23" d="M33 9c-12.4 1.3-22.1 3.8-26.2 6.9L50 19.2 33 9zM61.6 8.4c-3.3-.2-6.8-.3-10.3-.3-4.6 0-9 .2-13.2.5l13.2 10.7L61.6 8.4zM86.7 12C81 10.4 73.5 9.2 65 8.6L52.8 19.2 86.7 12zM86.7 26.5c7-1.9 11.3-4.5 11.3-7.3 0-2.1-2.4-4-6.5-5.7L52 20l34.7 6.5zM5 18c-.2.4-.3.8-.3 1.2 0 3.8 7.9 7.1 19.9 9.1l25.4-8L5 18zM29.3 29.1c6.5.8 14 1.3 22 1.3 12.2 0 23.3-1.1 31.6-2.9l-31.7-7.1-21.9 8.7z"/><g><path class="st21" d="M114.9 21.2c-24.2 0-44.7-4.6-56.1-10.4-.2.8-.9 2.3-.9 3.2 0 4.2 2.4 8.2 6.6 11.6 9.1 7.5 85.1 7.5 94.2 0 4.2-3.4 6.4-7.9 6.5-12-12 4.3-30 7.6-50.3 7.6z"/><ellipse class="st22" cx="111.7" cy="12.8" rx="53.6" ry="12.8"/><path class="st23" d="M92.5 2C79.5 3.4 69.3 6 65 9.3l45.3 3.5L92.5 2zM122.6 1.4c-3.5-.2-7.1-.3-10.8-.3-4.8 0-9.5.2-13.9.5l13.9 11.2 10.8-11.4zM149 5.2c-6-1.7-13.8-2.9-22.8-3.6l-12.8 11.2L149 5.2zM148.9 20.4c7.4-2 11.8-4.7 11.8-7.6 0-2.2-2.5-4.2-6.8-6l-41.4 6.8 36.4 6.8zM63.1 11.5c-.2.4-.3.9-.3 1.3 0 4 8.3 7.5 20.9 9.6l26.7-8.5-47.3-2.4zM88.7 23.1c6.9.9 14.7 1.4 23.1 1.4 12.8 0 24.5-1.2 33.2-3.1l-33.3-7.5-23 9.2z"/></g></g></svg>