<svg xmlns="http://www.w3.org/2000/svg" width="165.3" height="36.8"><style>.st24{fill:#cc1f1f}.st25{fill:#ef5043}.st26{fill:#f02820}</style><path class="st24" d="M54.3 27.3c-23.1 0-42.6-4.3-53.4-9.9-.2.8-.9 2.2-.9 3 0 4 2.3 7.8 6.3 11.1 8.7 7.1 81 7.1 89.7 0 4-3.2 6.1-7.5 6.2-11.4-11.5 4-28.6 7.2-47.9 7.2z"/><ellipse class="st25" cx="51.3" cy="19.2" rx="51" ry="12.2"/><path class="st26" d="M33 9c-12.4 1.3-22.1 3.8-26.2 6.9L50 19.2 33 9zm28.6-.6c-3.3-.2-6.8-.3-10.3-.3-4.6 0-9 .2-13.2.5l13.2 10.7L61.6 8.4zM86.7 12C81 10.4 73.5 9.2 65 8.6L52.8 19.2 86.7 12zm0 14.5c7-1.9 11.3-4.5 11.3-7.3 0-2.1-2.4-4-6.5-5.7L52 20l34.7 6.5zM5 18c-.2.4-.3.8-.3 1.2 0 3.8 7.9 7.1 19.9 9.1l25.4-8L5 18zm24.3 11.1c6.5.8 14 1.3 22 1.3 12.2 0 23.3-1.1 31.6-2.9l-31.7-7.1-21.9 8.7z"/><path class="st24" d="M114.9 21.2c-24.2 0-44.7-4.6-56.1-10.4-.2.8-.9 2.3-.9 3.2 0 4.2 2.4 8.2 6.6 11.6 9.1 7.5 85.1 7.5 94.2 0 4.2-3.4 6.4-7.9 6.5-12-12 4.3-30 7.6-50.3 7.6z"/><ellipse class="st25" cx="111.7" cy="12.8" rx="53.6" ry="12.8"/><path class="st26" d="M92.5 2C79.5 3.4 69.3 6 65 9.3l45.3 3.5L92.5 2zm30.1-.6c-3.5-.2-7.1-.3-10.8-.3-4.8 0-9.5.2-13.9.5l13.9 11.2 10.8-11.4zM149 5.2c-6-1.7-13.8-2.9-22.8-3.6l-12.8 11.2L149 5.2zm-.1 15.2c7.4-2 11.8-4.7 11.8-7.6 0-2.2-2.5-4.2-6.8-6l-41.4 6.8 36.4 6.8zm-85.8-8.9c-.2.4-.3.9-.3 1.3 0 4 8.3 7.5 20.9 9.6l26.7-8.5-47.3-2.4zm25.6 11.6c6.9.9 14.7 1.4 23.1 1.4 12.8 0 24.5-1.2 33.2-3.1l-33.3-7.5-23 9.2z"/></svg>